<?xml version="1.0" encoding="utf-8"?>
<!-- Generator: Adobe Illustrator 21.0.0, SVG Export Plug-In . SVG Version: 6.00 Build 0)  -->
<!DOCTYPE svg PUBLIC "-//W3C//DTD SVG 1.1//EN" "http://www.w3.org/Graphics/SVG/1.1/DTD/svg11.dtd" [
	<!ENTITY st0 "fill:#00A8C3;">
	<!ENTITY st1 "fill:#F4F4F4;">
	<!ENTITY st2 "fill:url(#SVGID_1_);">
	<!ENTITY st3 "fill:#FAFAFA;">
	<!ENTITY st4 "fill:none;stroke:#FAFAFA;stroke-width:1.8941;stroke-miterlimit:10;">
	<!ENTITY st5 "fill:url(#SVGID_2_);">
	<!ENTITY st6 "fill:url(#SVGID_3_);">
	<!ENTITY st7 "fill:url(#SVGID_4_);">
	<!ENTITY st8 "fill:url(#SVGID_5_);">
	<!ENTITY st9 "fill:url(#SVGID_6_);">
	<!ENTITY st10 "fill:#CCCCCC;">
	<!ENTITY st11 "fill:#F0BF1A;">
	<!ENTITY st12 "fill:#07A5DE;">
	<!ENTITY st13 "fill:#3EBEB0;">
	<!ENTITY st14 "fill:#231F20;">
	<!ENTITY st15 "fill:#D7A229;">
	<!ENTITY st16 "fill:#019B8F;">
	<!ENTITY st17 "fill:#E9478B;">
	<!ENTITY st18 "fill:#37A595;">
	<!ENTITY st19 "fill:#353535;">
	<!ENTITY st20 "fill:#F3BD19;">
	<!ENTITY st21 "fill:#FFFFFF;">
	<!ENTITY st22 "fill:url(#SVGID_7_);">
	<!ENTITY st23 "fill:url(#SVGID_8_);">
	<!ENTITY st24 "fill:url(#SVGID_9_);">
	<!ENTITY st25 "fill:url(#SVGID_10_);">
]>
<svg version="1.1" id="Layer_1" xmlns="http://www.w3.org/2000/svg" xmlns:xlink="http://www.w3.org/1999/xlink" x="0px" y="0px"
	 viewBox="0 0 1000 339" style="enable-background:new 0 0 1000 339;" xml:space="preserve">
<g>
	<path d="M339.6,321.4h-7.7v-13.6h2.8V319h5V321.4z"/>
	<path d="M341.6,312.6c0.7-0.9,1.9-1.4,3.5-1.4s2.8,0.5,3.5,1.4s1.1,2.2,1.1,3.9c0,3.5-1.5,5.3-4.6,5.3s-4.6-1.8-4.6-5.3
		C340.5,314.8,340.9,313.5,341.6,312.6z M343.7,318.7c0.3,0.5,0.8,0.7,1.5,0.7s1.2-0.2,1.5-0.7c0.3-0.5,0.4-1.2,0.4-2.3
		c0-1-0.1-1.8-0.4-2.2c-0.3-0.5-0.8-0.7-1.5-0.7s-1.2,0.2-1.5,0.7c-0.3,0.5-0.4,1.2-0.4,2.2C343.2,317.4,343.4,318.2,343.7,318.7z"
		/>
	<path d="M360.7,322.7c0,1.1-0.4,2-1.3,2.5c-0.9,0.5-2.1,0.8-3.6,0.8s-2.7-0.2-3.5-0.6c-0.8-0.4-1.2-1.1-1.2-2.2
		c0-0.8,0.5-1.6,1.4-2.4c-0.5-0.3-0.7-0.8-0.7-1.5c0-0.3,0.2-0.7,0.6-1.3l0.2-0.3c-0.9-0.7-1.4-1.6-1.4-2.9c0-1.3,0.4-2.2,1.1-2.8
		s1.8-0.9,3.1-0.9c0.6,0,1.1,0.1,1.7,0.2l0.3,0.1l3.2-0.1v2.1l-1.5-0.1c0.3,0.5,0.4,0.9,0.4,1.4c0,1.3-0.3,2.3-1,2.8
		c-0.7,0.5-1.7,0.8-3.2,0.8c-0.3,0-0.6,0-0.8-0.1c-0.1,0.3-0.2,0.6-0.2,0.8s0.1,0.4,0.3,0.5s0.8,0.1,1.6,0.1c1.7,0,2.8,0.2,3.4,0.7
		C360.4,320.8,360.7,321.6,360.7,322.7z M353.8,323c0,0.6,0.7,0.9,2.1,0.9c1.4,0,2.1-0.3,2.1-1c0-0.4-0.1-0.6-0.4-0.7
		c-0.2-0.1-0.7-0.2-1.5-0.2l-1.8-0.1C354,322.2,353.8,322.6,353.8,323z M354,314.8c0,1,0.5,1.5,1.5,1.5s1.5-0.5,1.5-1.5
		c0-1-0.5-1.5-1.5-1.5S354,313.8,354,314.8z"/>
	<path d="M369.5,313.9c-1.7-0.2-2.8-0.3-3.5-0.3c-0.7,0-1.1,0.1-1.3,0.2s-0.3,0.3-0.3,0.6c0,0.3,0.1,0.4,0.4,0.5
		c0.3,0.1,0.9,0.2,2,0.4s1.8,0.5,2.3,1c0.5,0.4,0.7,1.2,0.7,2.1c0,2.2-1.3,3.2-4,3.2c-0.9,0-1.9-0.1-3.2-0.4l-0.6-0.1l0.1-2.2
		c1.7,0.2,2.8,0.3,3.5,0.3c0.6,0,1.1-0.1,1.3-0.2c0.2-0.1,0.4-0.3,0.4-0.6s-0.1-0.4-0.4-0.6c-0.2-0.1-0.9-0.3-1.9-0.4
		c-1-0.2-1.8-0.5-2.3-0.9c-0.5-0.4-0.8-1.2-0.8-2.2c0-1.1,0.4-1.9,1.1-2.4c0.7-0.5,1.6-0.8,2.8-0.8c0.8,0,1.9,0.1,3.2,0.4l0.7,0.1
		L369.5,313.9z"/>
	<path d="M377.3,313.7h-2.5v4.1c0,0.4,0,0.7,0,0.9c0,0.2,0.1,0.3,0.2,0.4c0.1,0.1,0.3,0.2,0.6,0.2l1.5,0l0.1,2.1
		c-0.9,0.2-1.6,0.3-2,0.3c-1.2,0-2-0.3-2.5-0.8c-0.4-0.5-0.7-1.5-0.7-3v-4.2H371v-2.3h1.2v-2.8h2.7v2.8h2.5V313.7z"/>
	<path d="M386.7,314.6v4.2c0,0.3,0.1,0.5,0.2,0.7s0.2,0.2,0.5,0.3l-0.1,2c-0.7,0-1.2,0-1.6-0.1c-0.4-0.1-0.8-0.3-1.2-0.6
		c-1,0.5-1.9,0.7-2.9,0.7c-2.1,0-3.1-1.1-3.1-3.3c0-1.1,0.3-1.8,0.9-2.3c0.6-0.4,1.5-0.7,2.6-0.8l2.1-0.2v-0.6
		c0-0.4-0.1-0.7-0.3-0.9c-0.2-0.2-0.5-0.2-0.9-0.2l-3.8,0.2l-0.1-1.9c1.4-0.4,2.8-0.6,4.1-0.6c1.3,0,2.2,0.3,2.8,0.8
		C386.5,312.5,386.7,313.4,386.7,314.6z M382.2,317.2c-0.7,0.1-1.1,0.5-1.1,1.2s0.3,1.1,1,1.1c0.5,0,1.1-0.1,1.7-0.2l0.3-0.1V317
		L382.2,317.2z"/>
	<path d="M396.5,313.9c-1.7-0.2-2.8-0.3-3.5-0.3c-0.7,0-1.1,0.1-1.3,0.2s-0.3,0.3-0.3,0.6c0,0.3,0.1,0.4,0.4,0.5
		c0.3,0.1,0.9,0.2,2,0.4s1.8,0.5,2.3,1c0.5,0.4,0.7,1.2,0.7,2.1c0,2.2-1.3,3.2-4,3.2c-0.9,0-1.9-0.1-3.2-0.4l-0.6-0.1l0.1-2.2
		c1.7,0.2,2.8,0.3,3.5,0.3c0.6,0,1.1-0.1,1.3-0.2c0.2-0.1,0.4-0.3,0.4-0.6s-0.1-0.4-0.4-0.6c-0.2-0.1-0.9-0.3-1.9-0.4
		c-1-0.2-1.8-0.5-2.3-0.9c-0.5-0.4-0.8-1.2-0.8-2.2c0-1.1,0.4-1.9,1.1-2.4c0.7-0.5,1.6-0.8,2.8-0.8c0.8,0,1.9,0.1,3.2,0.4l0.7,0.1
		L396.5,313.9z"/>
	<path d="M401.4,321.4h-2.7v-14h2.7v4.5c0.9-0.5,1.7-0.7,2.5-0.7c1.3,0,2.3,0.4,2.8,1.2c0.5,0.8,0.8,2,0.8,3.6v5.4h-2.7v-5.4
		c0-0.8-0.1-1.5-0.3-1.9c-0.2-0.4-0.6-0.6-1.2-0.6c-0.5,0-1,0.1-1.6,0.2l-0.3,0.1V321.4z"/>
</g>
<g>
	<path d="M562.5,318.9c0.3,0.3,0.8,0.4,1.3,0.4c1.2,0,2.3,0,3.3-0.1l0.6-0.1l0,2c-1.5,0.4-2.9,0.6-4.2,0.6c-1.5,0-2.6-0.4-3.3-1.2
		s-1-2.1-1-3.9c0-3.6,1.5-5.4,4.4-5.4c2.9,0,4.4,1.5,4.4,4.5l-0.2,1.9H562C562,318.2,562.2,318.6,562.5,318.9z M565.4,315.5
		c0-0.8-0.1-1.4-0.4-1.7c-0.3-0.3-0.7-0.5-1.3-0.5c-0.6,0-1.1,0.2-1.3,0.5c-0.3,0.3-0.4,0.9-0.4,1.6H565.4z"/>
	<path d="M570.1,321.4v-14h2.7v14H570.1z"/>
	<path d="M583.1,314.6v4.2c0,0.3,0.1,0.5,0.2,0.7s0.2,0.2,0.5,0.3l-0.1,2c-0.7,0-1.2,0-1.6-0.1c-0.4-0.1-0.8-0.3-1.2-0.6
		c-1,0.5-1.9,0.7-2.9,0.7c-2.1,0-3.1-1.1-3.1-3.3c0-1.1,0.3-1.8,0.9-2.3c0.6-0.4,1.5-0.7,2.6-0.8l2.1-0.2v-0.6
		c0-0.4-0.1-0.7-0.3-0.9c-0.2-0.2-0.5-0.2-0.9-0.2l-3.8,0.2l-0.1-1.9c1.4-0.4,2.8-0.6,4.1-0.6s2.2,0.3,2.8,0.8
		C582.8,312.5,583.1,313.4,583.1,314.6z M578.6,317.2c-0.7,0.1-1.1,0.5-1.1,1.2s0.3,1.1,1,1.1c0.5,0,1.1-0.1,1.7-0.2l0.3-0.1V317
		L578.6,317.2z"/>
	<path d="M592.8,313.9c-1.7-0.2-2.8-0.3-3.5-0.3c-0.7,0-1.1,0.1-1.3,0.2s-0.3,0.3-0.3,0.6c0,0.3,0.1,0.4,0.4,0.5
		c0.3,0.1,0.9,0.2,2,0.4s1.8,0.5,2.3,1c0.5,0.4,0.7,1.2,0.7,2.1c0,2.2-1.3,3.2-4,3.2c-0.9,0-1.9-0.1-3.2-0.4l-0.6-0.1l0.1-2.2
		c1.7,0.2,2.8,0.3,3.5,0.3c0.6,0,1.1-0.1,1.3-0.2s0.4-0.3,0.4-0.6s-0.1-0.4-0.4-0.6c-0.2-0.1-0.9-0.3-1.9-0.4
		c-1-0.2-1.8-0.5-2.3-0.9s-0.8-1.2-0.8-2.2c0-1.1,0.4-1.9,1.1-2.4s1.6-0.8,2.8-0.8c0.8,0,1.9,0.1,3.2,0.4l0.7,0.1L592.8,313.9z"/>
	<path d="M600.6,313.7h-2.5v4.1c0,0.4,0,0.7,0,0.9c0,0.2,0.1,0.3,0.2,0.4s0.3,0.2,0.6,0.2l1.5,0l0.1,2.1c-0.9,0.2-1.6,0.3-2,0.3
		c-1.2,0-2-0.3-2.5-0.8c-0.4-0.5-0.7-1.5-0.7-3v-4.2h-1.2v-2.3h1.2v-2.8h2.7v2.8h2.5V313.7z"/>
	<path d="M602.3,310.2v-2.7h2.7v2.7H602.3z M602.3,321.4v-10h2.7v10H602.3z"/>
	<path d="M611.2,311.2c0.7,0,1.6,0.1,2.7,0.3l0.5,0.1l-0.1,2.1c-1.1-0.1-1.8-0.2-2.3-0.2c-0.9,0-1.5,0.2-1.8,0.6s-0.5,1.1-0.5,2.2
		c0,1.1,0.2,1.8,0.5,2.3c0.3,0.4,0.9,0.6,1.8,0.6l2.3-0.2l0.1,2.1c-1.4,0.3-2.5,0.4-3.3,0.4c-1.5,0-2.5-0.4-3.2-1.3s-1-2.2-1-4
		c0-1.8,0.3-3.2,1-4C608.7,311.6,609.8,311.2,611.2,311.2z"/>
	<path d="M623.6,313.9c-1.7-0.2-2.8-0.3-3.5-0.3c-0.7,0-1.1,0.1-1.3,0.2s-0.3,0.3-0.3,0.6c0,0.3,0.1,0.4,0.4,0.5
		c0.3,0.1,0.9,0.2,2,0.4s1.8,0.5,2.3,1c0.5,0.4,0.7,1.2,0.7,2.1c0,2.2-1.3,3.2-4,3.2c-0.9,0-1.9-0.1-3.2-0.4l-0.6-0.1l0.1-2.2
		c1.7,0.2,2.8,0.3,3.5,0.3c0.6,0,1.1-0.1,1.3-0.2s0.4-0.3,0.4-0.6s-0.1-0.4-0.4-0.6c-0.2-0.1-0.9-0.3-1.9-0.4
		c-1-0.2-1.8-0.5-2.3-0.9s-0.8-1.2-0.8-2.2c0-1.1,0.4-1.9,1.1-2.4s1.6-0.8,2.8-0.8c0.8,0,1.9,0.1,3.2,0.4l0.7,0.1L623.6,313.9z"/>
	<path d="M628.5,318.9c0.3,0.3,0.8,0.4,1.3,0.4c1.2,0,2.3,0,3.3-0.1l0.6-0.1l0,2c-1.5,0.4-2.9,0.6-4.2,0.6c-1.5,0-2.6-0.4-3.3-1.2
		s-1-2.1-1-3.9c0-3.6,1.5-5.4,4.4-5.4c2.9,0,4.4,1.5,4.4,4.5l-0.2,1.9h-5.9C628.1,318.2,628.2,318.6,628.5,318.9z M631.5,315.5
		c0-0.8-0.1-1.4-0.4-1.7c-0.3-0.3-0.7-0.5-1.3-0.5c-0.6,0-1.1,0.2-1.3,0.5c-0.3,0.3-0.4,0.9-0.4,1.6H631.5z"/>
	<path d="M643.7,314.6v4.2c0,0.3,0.1,0.5,0.2,0.7s0.2,0.2,0.5,0.3l-0.1,2c-0.7,0-1.2,0-1.6-0.1c-0.4-0.1-0.8-0.3-1.2-0.6
		c-1,0.5-1.9,0.7-2.9,0.7c-2.1,0-3.1-1.1-3.1-3.3c0-1.1,0.3-1.8,0.9-2.3c0.6-0.4,1.5-0.7,2.6-0.8l2.1-0.2v-0.6
		c0-0.4-0.1-0.7-0.3-0.9c-0.2-0.2-0.5-0.2-0.9-0.2l-3.8,0.2l-0.1-1.9c1.4-0.4,2.8-0.6,4.1-0.6s2.2,0.3,2.8,0.8
		C643.4,312.5,643.7,313.4,643.7,314.6z M639.2,317.2c-0.7,0.1-1.1,0.5-1.1,1.2s0.3,1.1,1,1.1c0.5,0,1.1-0.1,1.7-0.2l0.3-0.1V317
		L639.2,317.2z"/>
	<path d="M646.3,321.4v-10h2.7v1.1c1.1-0.7,2.2-1.1,3.2-1.3v2.7c-1.1,0.2-2,0.5-2.8,0.7l-0.4,0.1v6.7H646.3z"/>
	<path d="M657.5,311.2c0.7,0,1.6,0.1,2.7,0.3l0.5,0.1l-0.1,2.1c-1.1-0.1-1.8-0.2-2.3-0.2c-0.9,0-1.5,0.2-1.8,0.6s-0.5,1.1-0.5,2.2
		c0,1.1,0.2,1.8,0.5,2.3c0.3,0.4,0.9,0.6,1.8,0.6l2.3-0.2l0.1,2.1c-1.4,0.3-2.5,0.4-3.3,0.4c-1.5,0-2.5-0.4-3.2-1.3s-1-2.2-1-4
		c0-1.8,0.3-3.2,1-4C654.9,311.6,656,311.2,657.5,311.2z"/>
	<path d="M665.3,321.4h-2.7v-14h2.7v4.5c0.9-0.5,1.7-0.7,2.5-0.7c1.3,0,2.3,0.4,2.8,1.2c0.5,0.8,0.8,2,0.8,3.6v5.4h-2.7v-5.4
		c0-0.8-0.1-1.5-0.3-1.9c-0.2-0.4-0.6-0.6-1.2-0.6c-0.5,0-1,0.1-1.6,0.2l-0.3,0.1V321.4z"/>
</g>
<g>
	<path id="XMLID_116_" style="&st0;" d="M190.9,184.2l10.2-0.8c2.1-0.2,3.8-1.9,3.8-4.1l0-5.9l0-5.8l0-5.9c0-2.1-1.6-3.9-3.8-4.1
		l-10.4-0.8c-1.7-0.1-3.2-1.4-3.6-3c-1.6-6.2-4.1-12.1-7.3-17.5c-0.9-1.5-0.7-3.4,0.4-4.8l6.8-7.7c1.4-1.6,1.3-4-0.2-5.5l-4.1-4.2
		l-4-4.1l-4.1-4.2c-1.5-1.5-3.9-1.6-5.5-0.3l-8,6.7c-1.3,1.1-3.2,1.3-4.7,0.4c-5.8-3.5-12.1-6.2-18.9-7.8c-1.7-0.4-2.9-1.9-3.1-3.6
		l-0.8-10.2c-0.2-2.1-1.9-3.8-4.1-3.8h-5.9h-5.8h-5.9c-2.1,0-3.9,1.6-4.1,3.8l-0.8,10.4c-0.1,1.7-1.4,3.2-3,3.6
		c-6.3,1.6-12.2,4.1-17.7,7.4c-1.5,0.9-3.4,0.7-4.8-0.4l-7.8-6.8c-1.6-1.4-4-1.3-5.5,0.2l-4.2,4.2l-4.1,4.1l-4.2,4.2
		c-1.5,1.5-1.6,3.9-0.3,5.5l6.8,8c1.1,1.3,1.3,3.2,0.4,4.7c-3.5,5.8-6.1,12.1-7.8,18.8c-0.4,1.7-1.9,2.9-3.6,3.1l-10.2,0.8
		c-2.1,0.2-3.8,1.9-3.8,4.1l0,5.9l0,5.8l0,5.9c0,2.1,1.6,3.9,3.8,4.1l10.4,0.8c1.7,0.1,3.2,1.3,3.6,3c1.7,6.6,4.4,12.9,7.9,18.6
		c0.9,1.5,0.8,3.4-0.4,4.8l-6.6,7.9c-1.4,1.6-1.3,4,0.3,5.5l4.2,4.2l4.1,4.1l4.2,4.2c1.5,1.5,3.9,1.6,5.5,0.2l7.9-6.9
		c1.3-1.1,3.2-1.3,4.7-0.5c5.9,3.4,12.3,5.9,19.1,7.5c1.7,0.4,3,1.8,3.1,3.6l1,10.2c0.2,2.1,2,3.7,4.1,3.7l5.9-0.1l5.8-0.1l5.9-0.1
		c2.1,0,3.9-1.7,4-3.9l0.6-10.4c0.1-1.7,1.3-3.2,3-3.7c6.1-1.7,11.8-4.2,17.1-7.4c1.5-0.9,3.4-0.8,4.8,0.4l7.8,6.7
		c1.6,1.4,4,1.3,5.5-0.2l4.2-4.2l4.1-4.1l4.2-4.2c1.5-1.5,1.6-3.9,0.2-5.5l-6.8-7.9c-1.1-1.3-1.3-3.2-0.4-4.7
		c3.3-5.6,5.8-11.6,7.3-18.1C187.7,185.6,189.2,184.4,190.9,184.2z"/>
	<g id="XMLID_152_">
		<circle id="XMLID_389_" style="&st1;" cx="121" cy="171" r="54.5"/>
		<circle id="XMLID_203_" style="&st0;" cx="121" cy="171" r="47.1"/>
	</g>
</g>
<g>
	<path d="M837.1,321.4h-2.7v-14h2.7v8l1-0.2l2-3.8h3l-2.6,4.7l2.7,5.3h-3l-2-3.9l-1.1,0.2V321.4z"/>
	<path d="M844.8,310.2v-2.7h2.7v2.7H844.8z M844.8,321.4v-10h2.7v10H844.8z"/>
	<path d="M854.8,311.2c1.4,0,2.4,0.4,3.1,1.2c0.6,0.8,1,2.1,1,4.1c0,2-0.4,3.3-1.1,4.1c-0.7,0.8-2,1.1-3.9,1.1
		c-0.6,0-1.6-0.1-3.1-0.2l-0.8-0.1v-14h2.7v4.3C853.5,311.4,854.2,311.2,854.8,311.2z M853.8,319.3c0.9,0,1.5-0.2,1.8-0.6
		c0.3-0.4,0.5-1.2,0.5-2.3c0-1.8-0.6-2.7-1.7-2.7c-0.5,0-1,0.1-1.5,0.2l-0.3,0.1v5.3C853.2,319.3,853.6,319.3,853.8,319.3z"/>
	<path d="M868.5,314.6v4.2c0,0.3,0.1,0.5,0.2,0.7s0.2,0.2,0.5,0.3l-0.1,2c-0.7,0-1.2,0-1.6-0.1c-0.4-0.1-0.8-0.3-1.2-0.6
		c-1,0.5-1.9,0.7-2.9,0.7c-2.1,0-3.1-1.1-3.1-3.3c0-1.1,0.3-1.8,0.9-2.3c0.6-0.4,1.5-0.7,2.6-0.8l2.1-0.2v-0.6
		c0-0.4-0.1-0.7-0.3-0.9c-0.2-0.2-0.5-0.2-0.9-0.2l-3.8,0.2l-0.1-1.9c1.4-0.4,2.8-0.6,4.1-0.6c1.3,0,2.2,0.3,2.8,0.8
		C868.2,312.5,868.5,313.4,868.5,314.6z M864,317.2c-0.7,0.1-1.1,0.5-1.1,1.2s0.3,1.1,1,1.1c0.5,0,1.1-0.1,1.7-0.2l0.3-0.1V317
		L864,317.2z"/>
	<path d="M873.7,321.4H871v-10h2.7v0.6c0.9-0.5,1.7-0.8,2.5-0.8c1.3,0,2.3,0.4,2.8,1.2c0.5,0.8,0.8,2,0.8,3.6v5.4H877v-5.3
		c0-0.9-0.1-1.5-0.3-1.9c-0.2-0.4-0.6-0.6-1.2-0.6c-0.5,0-1.1,0.1-1.6,0.3l-0.2,0.1V321.4z"/>
	<path d="M889.7,314.6v4.2c0,0.3,0.1,0.5,0.2,0.7s0.2,0.2,0.5,0.3l-0.1,2c-0.7,0-1.2,0-1.6-0.1c-0.4-0.1-0.8-0.3-1.2-0.6
		c-1,0.5-1.9,0.7-2.9,0.7c-2.1,0-3.1-1.1-3.1-3.3c0-1.1,0.3-1.8,0.9-2.3c0.6-0.4,1.5-0.7,2.6-0.8l2.1-0.2v-0.6
		c0-0.4-0.1-0.7-0.3-0.9c-0.2-0.2-0.5-0.2-0.9-0.2l-3.8,0.2l-0.1-1.9c1.4-0.4,2.8-0.6,4.1-0.6c1.3,0,2.2,0.3,2.8,0.8
		C889.5,312.5,889.7,313.4,889.7,314.6z M885.2,317.2c-0.7,0.1-1.1,0.5-1.1,1.2s0.3,1.1,1,1.1c0.5,0,1.1-0.1,1.7-0.2l0.3-0.1V317
		L885.2,317.2z"/>
</g>
<g>
	<g>
		<path d="M305.7,35.4h-4.6V21.8h4.6c1.2,0,2.1,0.1,2.9,0.4c0.8,0.2,1.4,0.7,1.8,1.2c0.4,0.6,0.7,1.2,0.9,2c0.2,0.8,0.2,1.8,0.2,3
			c0,1.2-0.1,2.2-0.2,3c-0.1,0.8-0.4,1.5-0.8,2.2c-0.4,0.6-1,1.1-1.8,1.4C307.9,35.3,306.9,35.4,305.7,35.4z M308.6,30
			c0-0.4,0-1,0-1.8c0-0.8,0-1.4-0.1-1.8c-0.1-0.5-0.2-0.9-0.4-1.2c-0.2-0.4-0.5-0.6-0.9-0.8c-0.4-0.1-0.9-0.2-1.6-0.2h-1.8V33h1.8
			c1,0,1.7-0.3,2.2-0.8C308.3,31.9,308.6,31.1,308.6,30z"/>
		<path d="M321.3,28.6v4.2c0,0.3,0.1,0.5,0.2,0.7c0.1,0.1,0.2,0.2,0.5,0.3l-0.1,2c-0.7,0-1.2,0-1.6-0.1c-0.4-0.1-0.8-0.3-1.2-0.6
			c-1,0.5-1.9,0.7-2.9,0.7c-2.1,0-3.1-1.1-3.1-3.3c0-1.1,0.3-1.8,0.9-2.3c0.6-0.4,1.5-0.7,2.6-0.8l2.1-0.2v-0.6
			c0-0.4-0.1-0.7-0.3-0.9c-0.2-0.2-0.5-0.2-0.9-0.2l-3.8,0.2l-0.1-1.9c1.4-0.4,2.8-0.6,4.1-0.6c1.3,0,2.2,0.3,2.8,0.8
			S321.3,27.4,321.3,28.6z M316.8,31.2c-0.7,0.1-1.1,0.5-1.1,1.2s0.3,1.1,1,1.1c0.5,0,1.1-0.1,1.7-0.2l0.3-0.1V31L316.8,31.2z"/>
		<path d="M329.4,27.7H327v4.1c0,0.4,0,0.7,0,0.8c0,0.2,0.1,0.3,0.2,0.4c0.1,0.1,0.3,0.2,0.6,0.2l1.5,0l0.1,2.1
			c-0.9,0.2-1.6,0.3-2,0.3c-1.2,0-2-0.3-2.5-0.8c-0.4-0.5-0.7-1.5-0.7-3v-4.2h-1.2v-2.3h1.2v-2.8h2.7v2.8h2.5V27.7z"/>
		<path d="M338.8,28.6v4.2c0,0.3,0.1,0.5,0.2,0.7c0.1,0.1,0.2,0.2,0.5,0.3l-0.1,2c-0.7,0-1.2,0-1.6-0.1c-0.4-0.1-0.8-0.3-1.2-0.6
			c-1,0.5-1.9,0.7-2.9,0.7c-2.1,0-3.1-1.1-3.1-3.3c0-1.1,0.3-1.8,0.9-2.3c0.6-0.4,1.5-0.7,2.6-0.8l2.1-0.2v-0.6
			c0-0.4-0.1-0.7-0.3-0.9c-0.2-0.2-0.5-0.2-0.9-0.2l-3.8,0.2l-0.1-1.9c1.4-0.4,2.8-0.6,4.1-0.6c1.3,0,2.2,0.3,2.8,0.8
			S338.8,27.4,338.8,28.6z M334.3,31.2c-0.7,0.1-1.1,0.5-1.1,1.2s0.3,1.1,1,1.1c0.5,0,1.1-0.1,1.7-0.2l0.3-0.1V31L334.3,31.2z"/>
		<path d="M351,31.5h-2.2v4H346V21.8h5c3.2,0,4.8,1.6,4.8,4.7c0,1.6-0.4,2.8-1.2,3.6C353.8,31.1,352.6,31.5,351,31.5z M348.8,29.1
			h2.2c1.4,0,2.1-0.9,2.1-2.6c0-0.8-0.2-1.4-0.5-1.8c-0.3-0.4-0.9-0.5-1.6-0.5h-2.2V29.1z"/>
		<path d="M357.6,35.4v-10h2.7v1.1c1.1-0.7,2.2-1.1,3.2-1.3v2.7c-1.1,0.2-2,0.5-2.8,0.7l-0.4,0.1v6.7H357.6z"/>
		<path d="M365.6,26.6c0.7-0.9,1.9-1.4,3.5-1.4s2.8,0.5,3.5,1.4s1.1,2.2,1.1,3.8c0,3.5-1.5,5.3-4.6,5.3s-4.6-1.8-4.6-5.3
			C364.5,28.8,364.9,27.5,365.6,26.6z M367.6,32.7c0.3,0.5,0.8,0.7,1.5,0.7s1.2-0.2,1.5-0.7c0.3-0.5,0.4-1.2,0.4-2.3
			c0-1-0.1-1.8-0.4-2.2c-0.3-0.5-0.8-0.7-1.5-0.7s-1.2,0.2-1.5,0.7c-0.3,0.5-0.4,1.2-0.4,2.2C367.2,31.5,367.4,32.2,367.6,32.7z"/>
		<path d="M379.4,25.2c0.7,0,1.6,0.1,2.7,0.3l0.5,0.1l-0.1,2.1c-1.1-0.1-1.8-0.2-2.3-0.2c-0.9,0-1.5,0.2-1.8,0.6
			c-0.3,0.4-0.5,1.1-0.5,2.2c0,1.1,0.1,1.8,0.5,2.3c0.3,0.4,0.9,0.6,1.8,0.6l2.3-0.2l0.1,2.1c-1.4,0.3-2.5,0.4-3.3,0.4
			c-1.5,0-2.5-0.4-3.2-1.3c-0.6-0.8-1-2.2-1-4s0.3-3.2,1-4C376.9,25.6,377.9,25.2,379.4,25.2z"/>
		<path d="M387.2,32.9c0.3,0.3,0.8,0.4,1.3,0.4c1.2,0,2.3,0,3.3-0.1l0.6-0.1l0,2c-1.5,0.4-2.9,0.6-4.2,0.6c-1.5,0-2.6-0.4-3.3-1.2
			c-0.7-0.8-1-2.1-1-3.9c0-3.6,1.5-5.4,4.4-5.4c2.9,0,4.4,1.5,4.4,4.5l-0.2,1.9h-5.9C386.7,32.2,386.9,32.6,387.2,32.9z M390.1,29.5
			c0-0.8-0.1-1.4-0.4-1.7c-0.3-0.3-0.7-0.5-1.3-0.5s-1.1,0.2-1.3,0.5c-0.3,0.3-0.4,0.9-0.4,1.6H390.1z"/>
		<path d="M401.9,27.9c-1.7-0.2-2.8-0.3-3.5-0.3c-0.7,0-1.1,0.1-1.3,0.2c-0.2,0.1-0.3,0.3-0.3,0.6s0.1,0.4,0.4,0.5
			c0.3,0.1,0.9,0.2,2,0.4s1.8,0.5,2.3,0.9c0.5,0.4,0.7,1.2,0.7,2.1c0,2.2-1.3,3.2-4,3.2c-0.9,0-1.9-0.1-3.2-0.4l-0.6-0.1l0.1-2.2
			c1.7,0.2,2.8,0.3,3.5,0.3c0.6,0,1.1-0.1,1.3-0.2c0.2-0.1,0.4-0.3,0.4-0.6c0-0.3-0.1-0.4-0.4-0.6c-0.2-0.1-0.9-0.3-1.9-0.4
			c-1-0.2-1.8-0.5-2.3-0.9c-0.5-0.4-0.8-1.2-0.8-2.2c0-1.1,0.4-1.9,1.1-2.4c0.7-0.5,1.6-0.8,2.8-0.8c0.8,0,1.9,0.1,3.2,0.4l0.7,0.1
			L401.9,27.9z"/>
		<path d="M411.3,27.9c-1.7-0.2-2.8-0.3-3.5-0.3c-0.7,0-1.1,0.1-1.3,0.2c-0.2,0.1-0.3,0.3-0.3,0.6s0.1,0.4,0.4,0.5
			c0.3,0.1,0.9,0.2,2,0.4s1.8,0.5,2.3,0.9c0.5,0.4,0.7,1.2,0.7,2.1c0,2.2-1.3,3.2-4,3.2c-0.9,0-1.9-0.1-3.2-0.4l-0.6-0.1l0.1-2.2
			c1.7,0.2,2.8,0.3,3.5,0.3c0.6,0,1.1-0.1,1.3-0.2c0.2-0.1,0.4-0.3,0.4-0.6c0-0.3-0.1-0.4-0.4-0.6c-0.2-0.1-0.9-0.3-1.9-0.4
			c-1-0.2-1.8-0.5-2.3-0.9c-0.5-0.4-0.8-1.2-0.8-2.2c0-1.1,0.4-1.9,1.1-2.4c0.7-0.5,1.6-0.8,2.8-0.8c0.8,0,1.9,0.1,3.2,0.4l0.7,0.1
			L411.3,27.9z"/>
		<path d="M413.6,24.2v-2.7h2.7v2.7H413.6z M413.6,35.4v-10h2.7v10H413.6z"/>
		<path d="M421.4,35.4h-2.7v-10h2.7V26c0.9-0.5,1.7-0.8,2.5-0.8c1.3,0,2.3,0.4,2.8,1.2c0.5,0.8,0.8,2,0.8,3.6v5.4h-2.7v-5.3
			c0-0.9-0.1-1.5-0.3-1.9c-0.2-0.4-0.6-0.6-1.2-0.6c-0.5,0-1.1,0.1-1.6,0.3l-0.2,0.1V35.4z"/>
		<path d="M438.9,36.7c0,1.1-0.4,2-1.3,2.5S435.5,40,434,40s-2.7-0.2-3.5-0.6c-0.8-0.4-1.2-1.1-1.2-2.2c0-0.8,0.5-1.6,1.4-2.4
			c-0.5-0.3-0.7-0.8-0.7-1.5c0-0.3,0.2-0.7,0.6-1.3l0.2-0.3c-0.9-0.7-1.4-1.6-1.4-2.9s0.4-2.2,1.1-2.8s1.8-0.9,3.1-0.9
			c0.6,0,1.1,0.1,1.7,0.2l0.3,0.1l3.2-0.1v2.1l-1.5-0.1c0.3,0.5,0.4,0.9,0.4,1.4c0,1.3-0.3,2.3-1,2.8c-0.7,0.5-1.7,0.8-3.2,0.8
			c-0.3,0-0.6,0-0.8-0.1c-0.1,0.3-0.2,0.6-0.2,0.9s0.1,0.4,0.3,0.5s0.8,0.1,1.6,0.1c1.7,0,2.8,0.2,3.4,0.7
			C438.6,34.8,438.9,35.6,438.9,36.7z M431.9,37c0,0.6,0.7,0.9,2.1,0.9c1.4,0,2.1-0.3,2.1-1c0-0.4-0.1-0.6-0.4-0.7
			c-0.2-0.1-0.7-0.2-1.5-0.2l-1.8-0.1C432.1,36.2,431.9,36.6,431.9,37z M432.1,28.8c0,1,0.5,1.5,1.5,1.5s1.5-0.5,1.5-1.5
			c0-1-0.5-1.5-1.5-1.5S432.1,27.8,432.1,28.8z"/>
	</g>
</g>
<g>
	<g>
		<path d="M121.4,35.4h-7.7V21.8h2.8V33h5V35.4z"/>
		<path d="M123.4,26.6c0.7-0.9,1.9-1.4,3.5-1.4s2.8,0.5,3.5,1.4s1.1,2.2,1.1,3.8c0,3.5-1.5,5.3-4.6,5.3s-4.6-1.8-4.6-5.3
			C122.3,28.8,122.7,27.5,123.4,26.6z M125.5,32.7c0.3,0.5,0.8,0.7,1.5,0.7s1.2-0.2,1.5-0.7c0.3-0.5,0.4-1.2,0.4-2.3
			c0-1-0.1-1.8-0.4-2.2c-0.3-0.5-0.8-0.7-1.5-0.7s-1.2,0.2-1.5,0.7c-0.3,0.5-0.4,1.2-0.4,2.2C125,31.5,125.2,32.2,125.5,32.7z"/>
		<path d="M142.5,36.7c0,1.1-0.4,2-1.3,2.5s-2.1,0.8-3.6,0.8s-2.7-0.2-3.5-0.6c-0.8-0.4-1.2-1.1-1.2-2.2c0-0.8,0.5-1.6,1.4-2.4
			c-0.5-0.3-0.7-0.8-0.7-1.5c0-0.3,0.2-0.7,0.6-1.3l0.2-0.3c-0.9-0.7-1.4-1.6-1.4-2.9s0.4-2.2,1.1-2.8s1.8-0.9,3.1-0.9
			c0.6,0,1.1,0.1,1.7,0.2l0.3,0.1l3.2-0.1v2.1l-1.5-0.1c0.3,0.5,0.4,0.9,0.4,1.4c0,1.3-0.3,2.3-1,2.8c-0.7,0.5-1.7,0.8-3.2,0.8
			c-0.3,0-0.6,0-0.8-0.1c-0.1,0.3-0.2,0.6-0.2,0.9s0.1,0.4,0.3,0.5s0.8,0.1,1.6,0.1c1.7,0,2.8,0.2,3.4,0.7
			C142.2,34.8,142.5,35.6,142.5,36.7z M135.6,37c0,0.6,0.7,0.9,2.1,0.9c1.4,0,2.1-0.3,2.1-1c0-0.4-0.1-0.6-0.4-0.7
			c-0.2-0.1-0.7-0.2-1.5-0.2l-1.8-0.1C135.8,36.2,135.6,36.6,135.6,37z M135.8,28.8c0,1,0.5,1.5,1.5,1.5s1.5-0.5,1.5-1.5
			c0-1-0.5-1.5-1.5-1.5S135.8,27.8,135.8,28.8z"/>
	</g>
</g>
<g>
	<g>
		<path d="M587.5,24c-1.5,0-2.2,0.5-2.2,1.4c0,0.4,0.2,0.8,0.5,1c0.4,0.2,1.2,0.6,2.5,1c1.3,0.4,2.3,0.9,2.8,1.5s0.8,1.4,0.8,2.5
			c0,1.4-0.4,2.5-1.3,3.2c-0.9,0.7-2,1.1-3.4,1.1c-1,0-2.3-0.2-3.8-0.5l-0.7-0.1l0.3-2.1c1.8,0.2,3.2,0.4,4.1,0.4
			c1.4,0,2.1-0.6,2.1-1.8c0-0.4-0.2-0.8-0.5-1c-0.3-0.2-1-0.5-2-0.8c-1.5-0.4-2.6-1-3.3-1.6c-0.6-0.6-1-1.5-1-2.5
			c0-1.4,0.4-2.4,1.2-3c0.8-0.7,2-1,3.4-1c1,0,2.2,0.1,3.8,0.4l0.7,0.1l-0.2,2.2C589.6,24.1,588.3,24,587.5,24z"/>
		<path d="M599.4,27.7H597v4.1c0,0.4,0,0.7,0,0.9c0,0.2,0.1,0.3,0.2,0.4s0.3,0.2,0.6,0.2l1.5,0l0.1,2.1c-0.9,0.2-1.6,0.3-2,0.3
			c-1.2,0-2-0.3-2.5-0.8c-0.4-0.5-0.7-1.5-0.7-3v-4.2h-1.2v-2.3h1.2v-2.8h2.7v2.8h2.5V27.7z"/>
		<path d="M601.7,26.6c0.7-0.9,1.9-1.4,3.5-1.4s2.8,0.5,3.5,1.4c0.7,0.9,1.1,2.2,1.1,3.9c0,3.5-1.5,5.3-4.6,5.3
			c-3.1,0-4.6-1.8-4.6-5.3C600.7,28.8,601,27.5,601.7,26.6z M603.8,32.7c0.3,0.5,0.8,0.7,1.5,0.7c0.7,0,1.2-0.2,1.5-0.7
			c0.3-0.5,0.4-1.2,0.4-2.3s-0.1-1.8-0.4-2.2c-0.3-0.5-0.8-0.7-1.5-0.7c-0.7,0-1.2,0.2-1.5,0.7s-0.4,1.2-0.4,2.2
			S603.5,32.2,603.8,32.7z"/>
		<path d="M611.8,35.4v-10h2.7v1.1c1.1-0.7,2.2-1.1,3.2-1.3v2.7c-1.1,0.2-2,0.5-2.8,0.7l-0.4,0.1v6.7H611.8z"/>
		<path d="M626.9,28.6v4.2c0,0.3,0.1,0.5,0.2,0.7s0.2,0.2,0.5,0.3l-0.1,2c-0.7,0-1.2,0-1.6-0.1c-0.4-0.1-0.8-0.3-1.2-0.6
			c-1,0.5-1.9,0.7-2.9,0.7c-2.1,0-3.1-1.1-3.1-3.3c0-1.1,0.3-1.8,0.9-2.3s1.5-0.7,2.6-0.8l2.1-0.2v-0.6c0-0.4-0.1-0.7-0.3-0.8
			c-0.2-0.2-0.5-0.2-0.9-0.2l-3.8,0.2l-0.1-1.9c1.4-0.4,2.8-0.6,4.1-0.6c1.3,0,2.2,0.3,2.8,0.8C626.6,26.5,626.9,27.4,626.9,28.6z
			 M622.4,31.2c-0.7,0.1-1.1,0.5-1.1,1.2c0,0.7,0.3,1.1,1,1.1c0.5,0,1.1-0.1,1.7-0.2l0.3-0.1V31L622.4,31.2z"/>
		<path d="M638.5,36.7c0,1.1-0.4,2-1.3,2.5s-2.1,0.8-3.6,0.8s-2.7-0.2-3.5-0.6c-0.8-0.4-1.2-1.1-1.2-2.2c0-0.8,0.5-1.6,1.4-2.4
			c-0.5-0.3-0.7-0.8-0.7-1.5c0-0.3,0.2-0.7,0.6-1.3l0.2-0.3c-0.9-0.7-1.4-1.6-1.4-2.9s0.4-2.2,1.1-2.8s1.8-0.9,3.1-0.9
			c0.6,0,1.1,0.1,1.7,0.2l0.3,0.1l3.2-0.1v2.1l-1.5-0.1c0.3,0.5,0.4,0.9,0.4,1.4c0,1.3-0.3,2.3-1,2.8c-0.7,0.5-1.7,0.8-3.2,0.8
			c-0.3,0-0.6,0-0.8-0.1c-0.1,0.3-0.2,0.6-0.2,0.8c0,0.2,0.1,0.4,0.3,0.5s0.8,0.1,1.6,0.1c1.7,0,2.8,0.2,3.4,0.7
			C638.2,34.8,638.5,35.6,638.5,36.7z M631.6,37c0,0.6,0.7,0.9,2.1,0.9c1.4,0,2.1-0.3,2.1-1c0-0.4-0.1-0.6-0.4-0.7
			c-0.2-0.1-0.7-0.2-1.5-0.2l-1.8-0.1C631.8,36.2,631.6,36.6,631.6,37z M631.8,28.8c0,1,0.5,1.5,1.5,1.5c1,0,1.5-0.5,1.5-1.5
			c0-1-0.5-1.5-1.5-1.5C632.3,27.3,631.8,27.8,631.8,28.8z"/>
		<path d="M642.9,32.9c0.3,0.3,0.8,0.4,1.3,0.4c1.2,0,2.3,0,3.3-0.1l0.6-0.1l0,2c-1.5,0.4-2.9,0.6-4.2,0.6c-1.5,0-2.6-0.4-3.3-1.2
			s-1-2.1-1-3.9c0-3.6,1.5-5.4,4.4-5.4c2.9,0,4.4,1.5,4.4,4.5l-0.2,1.9h-5.9C642.4,32.2,642.5,32.6,642.9,32.9z M645.8,29.5
			c0-0.8-0.1-1.4-0.4-1.7c-0.3-0.3-0.7-0.5-1.3-0.5c-0.6,0-1.1,0.2-1.3,0.5c-0.3,0.3-0.4,0.9-0.4,1.7H645.8z"/>
	</g>
</g>
<g>
	<g>
		<path d="M832.1,21.8h2.9l-3.2,13.6h-5.1l-3.2-13.6h2.9l2.4,11.2h0.9L832.1,21.8z"/>
		<path d="M836.6,24.2v-2.7h2.7v2.7H836.6z M836.6,35.4v-10h2.7v10H836.6z"/>
		<path d="M848.9,27.9c-1.7-0.2-2.8-0.3-3.5-0.3s-1.1,0.1-1.3,0.2c-0.2,0.1-0.3,0.3-0.3,0.6s0.1,0.4,0.4,0.5c0.3,0.1,0.9,0.2,2,0.4
			s1.8,0.5,2.3,0.9c0.5,0.4,0.7,1.2,0.7,2.1c0,2.2-1.3,3.2-4,3.2c-0.9,0-1.9-0.1-3.2-0.4l-0.6-0.1l0.1-2.2c1.7,0.2,2.8,0.3,3.5,0.3
			s1.1-0.1,1.3-0.2c0.2-0.1,0.3-0.3,0.3-0.6c0-0.3-0.1-0.4-0.4-0.6s-0.9-0.3-1.9-0.4c-1-0.2-1.8-0.5-2.3-0.9
			c-0.5-0.4-0.8-1.2-0.8-2.2c0-1.1,0.4-1.9,1.1-2.4c0.7-0.5,1.6-0.8,2.8-0.8c0.8,0,1.9,0.1,3.2,0.4l0.7,0.1L848.9,27.9z"/>
		<path d="M857.1,25.4h2.7v10h-2.7v-0.6c-1,0.5-1.8,0.8-2.5,0.8c-1.4,0-2.3-0.4-2.8-1.2c-0.5-0.8-0.7-2-0.7-3.8v-5.2h2.7v5.3
			c0,1,0.1,1.7,0.2,2s0.5,0.5,1.2,0.5c0.6,0,1.1-0.1,1.7-0.3l0.3-0.1V25.4z"/>
		<path d="M869.9,28.6v4.2c0,0.3,0.1,0.5,0.2,0.7c0.1,0.1,0.2,0.2,0.5,0.3l-0.1,2c-0.7,0-1.2,0-1.6-0.1s-0.8-0.3-1.2-0.6
			c-1,0.5-1.9,0.7-2.9,0.7c-2.1,0-3.1-1.1-3.1-3.3c0-1.1,0.3-1.8,0.9-2.3c0.6-0.4,1.5-0.7,2.6-0.8l2.1-0.2v-0.6
			c0-0.4-0.1-0.7-0.3-0.9s-0.5-0.2-0.9-0.2l-3.8,0.2l-0.1-1.9c1.4-0.4,2.8-0.6,4.1-0.6s2.2,0.3,2.8,0.8
			C869.6,26.5,869.9,27.4,869.9,28.6z M865.4,31.2c-0.7,0.1-1.1,0.5-1.1,1.2s0.3,1.1,1,1.1c0.5,0,1.1-0.1,1.7-0.2l0.3-0.1V31
			L865.4,31.2z"/>
		<path d="M872.6,35.4v-14h2.7v14H872.6z"/>
		<path d="M877.8,24.2v-2.7h2.7v2.7H877.8z M877.8,35.4v-10h2.7v10H877.8z"/>
		<path d="M882.6,27.8v-2.4h7.4v2.4l-4.2,5.2h4.2v2.4h-7.4V33l4.2-5.2H882.6z"/>
		<path d="M894.8,32.9c0.3,0.3,0.8,0.4,1.3,0.4c1.2,0,2.3,0,3.3-0.1l0.6-0.1l0,2c-1.5,0.4-2.9,0.6-4.2,0.6c-1.5,0-2.6-0.4-3.3-1.2
			s-1-2.1-1-3.9c0-3.6,1.5-5.4,4.4-5.4c2.9,0,4.4,1.5,4.4,4.5l-0.2,1.9h-5.9C894.3,32.2,894.5,32.6,894.8,32.9z M897.7,29.5
			c0-0.8-0.1-1.4-0.4-1.7c-0.3-0.3-0.7-0.5-1.3-0.5c-0.6,0-1.1,0.2-1.3,0.5c-0.3,0.3-0.4,0.9-0.4,1.6H897.7z"/>
	</g>
</g>
<g>
	<linearGradient id="SVGID_1_" gradientUnits="userSpaceOnUse" x1="282.0088" y1="169.6055" x2="459.3186" y2="169.6055">
		<stop  offset="5.588050e-02" style="stop-color:#F3BD19"/>
		<stop  offset="1" style="stop-color:#F9ED32"/>
	</linearGradient>
	<circle style="&st2;" cx="370.7" cy="169.6" r="88.7"/>
	<circle style="&st3;" cx="370.7" cy="169.6" r="72.5"/>
	<circle style="&st4;" cx="370.7" cy="169.6" r="106.1"/>
	<g>
		
			<linearGradient id="SVGID_2_" gradientUnits="userSpaceOnUse" x1="266.0157" y1="99.0834" x2="381.0801" y2="99.0834" gradientTransform="matrix(0.985 0.1724 -0.1724 0.985 24.0087 -52.3034)">
			<stop  offset="5.588050e-02" style="stop-color:#F3BD19"/>
			<stop  offset="1" style="stop-color:#F9ED32"/>
		</linearGradient>
		<path style="&st5;" d="M276.7,150.9l-17.6-3.1C270,85.3,329.7,43.4,392.2,54.3l-3.1,17.6C336.4,62.7,285.9,98.1,276.7,150.9z"/>
	</g>
	<linearGradient id="SVGID_3_" gradientUnits="userSpaceOnUse" x1="526.3366" y1="169.6055" x2="703.647" y2="169.6055">
		<stop  offset="0.1633" style="stop-color:#07A5DE"/>
		<stop  offset="1" style="stop-color:#07D5F2"/>
	</linearGradient>
	<circle style="&st6;" cx="615" cy="169.6" r="88.7"/>
	<circle style="&st3;" cx="615" cy="169.6" r="72.5"/>
	
		<ellipse transform="matrix(0.7071 -0.7071 0.7071 0.7071 60.0904 485.0485)" style="&st4;" cx="615.6" cy="170" rx="106.1" ry="106.1"/>
	<g>
		
			<linearGradient id="SVGID_4_" gradientUnits="userSpaceOnUse" x1="457.3584" y1="172.8562" x2="572.4241" y2="172.8562" gradientTransform="matrix(0.7071 0.7071 -0.7071 0.7071 373.6978 -234.954)">
			<stop  offset="0.1633" style="stop-color:#07A5DE"/>
			<stop  offset="1" style="stop-color:#07D5F2"/>
		</linearGradient>
		<path style="&st7;" d="M534.2,251.4l12.6-12.6c37.9,37.9,99.5,37.9,137.4,0l12.6,12.6C652,296.2,579.1,296.2,534.2,251.4z"/>
	</g>
	<linearGradient id="SVGID_5_" gradientUnits="userSpaceOnUse" x1="770.6647" y1="169.6055" x2="947.9751" y2="169.6055">
		<stop  offset="2.472680e-02" style="stop-color:#E12D62"/>
		<stop  offset="1" style="stop-color:#FF78A7"/>
	</linearGradient>
	<circle style="&st8;" cx="859.3" cy="169.6" r="88.7"/>
	<circle style="&st3;" cx="859.3" cy="169.6" r="72.5"/>
	<circle style="&st4;" cx="859.3" cy="169.6" r="106.1"/>
	<g>
		<linearGradient id="SVGID_6_" gradientUnits="userSpaceOnUse" x1="859.3207" y1="112.0736" x2="974.3842" y2="112.0736">
			<stop  offset="2.472680e-02" style="stop-color:#E12D62"/>
			<stop  offset="1" style="stop-color:#FF78A7"/>
		</linearGradient>
		<path style="&st9;" d="M974.4,169.6h-17.9c0-53.6-43.6-97.2-97.2-97.2V54.5C922.8,54.5,974.4,106.2,974.4,169.6z"/>
	</g>
	<circle style="&st3;" cx="494.7" cy="169.8" r="26.8"/>
	<circle style="&st3;" cx="738.3" cy="169.8" r="26.8"/>
	<g>
		<path style="&st10;" d="M489.5,188c-0.9,0-1.7-0.3-2.4-1c-1.3-1.3-1.3-3.4,0-4.7l12.1-12.1L486.9,158c-1.3-1.3-1.3-3.4,0-4.7
			c1.3-1.3,3.4-1.3,4.7,0l14.6,14.6c0.6,0.6,1,1.5,1,2.4c0,0.9-0.4,1.7-1,2.4L491.8,187C491.2,187.7,490.3,188,489.5,188z"/>
	</g>
	<g>
		<path style="&st10;" d="M732.3,188c-0.9,0-1.7-0.3-2.4-1c-1.3-1.3-1.3-3.4,0-4.7l12.1-12.1L729.8,158c-1.3-1.3-1.3-3.4,0-4.7
			c1.3-1.3,3.4-1.3,4.7,0l14.6,14.6c0.6,0.6,1,1.5,1,2.4c0,0.9-0.4,1.7-1,2.4L734.7,187C734,187.7,733.2,188,732.3,188z"/>
	</g>
	<circle style="&st3;" cx="236.7" cy="169.8" r="26.8"/>
	<g>
		<path style="&st10;" d="M231.5,188c-0.9,0-1.7-0.3-2.4-1c-1.3-1.3-1.3-3.4,0-4.7l12.1-12.1L228.9,158c-1.3-1.3-1.3-3.4,0-4.7
			c1.3-1.3,3.4-1.3,4.7,0l14.6,14.6c0.6,0.6,1,1.5,1,2.4c0,0.9-0.4,1.7-1,2.4L233.8,187C233.2,187.7,232.3,188,231.5,188z"/>
	</g>
	<circle style="&st4;" cx="120.7" cy="169.6" r="106.1"/>
</g>
<g>
	<path style="&st11;" d="M579.6,149.5h59.7c6.6,0,12.5-3,16.4-7.7c-8.2-10.7-21.1-17.6-35.7-17.6
		C602.3,124.2,586.9,134.5,579.6,149.5"/>
	<path style="&st12;" d="M634.3,156.5h-57.4c-1.2,4-1.8,8.3-1.8,12.7c0,4.4,0.6,8.6,1.8,12.7h57.4c6.9,0,12.7-5.6,12.7-12.7
		C646.9,162.1,641.3,156.5,634.3,156.5"/>
	<path style="&st13;" d="M655.9,196.4c-3.9-4.6-9.8-7.5-16.3-7.5h-60c7.3,15,22.7,25.3,40.5,25.3
		C634.7,214.2,647.7,207.2,655.9,196.4"/>
	<path style="&st14;" d="M576.9,156.5c-1.2,4-1.8,8.3-1.8,12.7c0,4.4,0.6,8.6,1.8,12.7h37.6c1-3.8,1.5-8,1.5-12.7
		c0-4.6-0.6-8.9-1.5-12.7H576.9z"/>
	<path style="&st15;" d="M597.4,130.2c-7.6,4.5-13.9,11.2-17.9,19.3h33.2C609.4,141.8,604.1,135.3,597.4,130.2"/>
	<path style="&st16;" d="M598.9,208.8c6.5-5.2,11.7-12.1,14.9-20h-34.2C583.8,197.3,590.6,204.3,598.9,208.8"/>
</g>
<g>
	<path style="&st17;" d="M828.8,154.9c11.9,0,23.2,3.1,33.1,8.3l35-42.1h-69.4v83.5v-49.7H828.8L828.8,154.9z"/>
	<path style="&st13;" d="M861.8,163.2l-34.4,41.4v6.5h69.2C892.7,190.6,879.7,173,861.8,163.2z"/>
	<path style="&st18;" d="M861.8,163.2l-34.4,41.4v6.5h12.3l33.4-40.3c0,0-2.3-1.8-5.4-4.1C865.4,165.2,861.8,163.2,861.8,163.2z"/>
	<path style="&st19;" d="M828.8,154.9h-1.3v49.7l34.4-41.4C852,158,840.7,154.9,828.8,154.9L828.8,154.9z"/>
</g>
<g>
	<path style="&st20;" d="M371.3,168.3h-41.7v-48.1h12.6c16.2,0,29.1,13.1,29.1,29.1V168.3z"/>
	<path style="&st14;" d="M371.3,210.2c-23.1,0-41.9-18.7-41.9-41.9h41.9V210.2z"/>
	<path style="&st13;" d="M371.3,168.3h38.1v41.9h-38.1V168.3z"/>
	<path style="&st18;" d="M371.3,168.3h8.8v41.9h-8.8V168.3z"/>
</g>
<g>
	<g>
		<path style="&st21;" d="M116.2,177.1h2.7v6.7h4.3v2.2h-7V177.1L116.2,177.1z M123.9,181.5c0-1.4,0.4-2.6,1.2-3.4
			c0.8-0.8,1.9-1.2,3.4-1.2c1.5,0,2.6,0.4,3.4,1.2c0.8,0.8,1.2,1.9,1.2,3.3c0,1-0.2,1.9-0.5,2.5c-0.3,0.7-0.9,1.2-1.5,1.5
			c-0.7,0.4-1.5,0.6-2.5,0.6c-1,0-1.8-0.2-2.5-0.5c-0.7-0.3-1.2-0.8-1.6-1.5C124.1,183.4,123.9,182.6,123.9,181.5L123.9,181.5z
			 M126.6,181.6c0,0.9,0.2,1.5,0.5,1.9c0.3,0.4,0.8,0.6,1.4,0.6c0.6,0,1-0.2,1.4-0.6c0.3-0.4,0.5-1.1,0.5-2.1c0-0.8-0.2-1.4-0.5-1.8
			c-0.3-0.4-0.8-0.6-1.4-0.6c-0.5,0-1,0.2-1.3,0.6C126.8,180,126.6,180.7,126.6,181.6L126.6,181.6z M139,182.8v-1.8h4.2v3.8
			c-0.8,0.5-1.5,0.9-2.1,1.1c-0.6,0.2-1.4,0.3-2.2,0.3c-1.1,0-1.9-0.2-2.6-0.5c-0.7-0.4-1.2-0.9-1.5-1.6c-0.4-0.7-0.5-1.5-0.5-2.4
			c0-1,0.2-1.8,0.6-2.5c0.4-0.7,1-1.3,1.8-1.6c0.6-0.3,1.4-0.4,2.4-0.4c1,0,1.7,0.1,2.2,0.3c0.5,0.2,0.9,0.5,1.2,0.8
			c0.3,0.4,0.6,0.8,0.7,1.4l-2.6,0.5c-0.1-0.3-0.3-0.6-0.6-0.8c-0.3-0.2-0.6-0.3-1-0.3c-0.6,0-1.1,0.2-1.4,0.6
			c-0.4,0.4-0.5,1.1-0.5,2c0,1,0.2,1.6,0.5,2.1c0.4,0.4,0.9,0.6,1.5,0.6c0.3,0,0.6,0,0.9-0.1c0.3-0.1,0.6-0.2,1-0.5v-0.8L139,182.8
			L139,182.8z"/>
	</g>
	<path style="&st21;" d="M115.3,172.4h27.9c1.7,0,3.3,0.7,4.4,1.8c1.1,1.1,1.8,2.7,1.8,4.4v5.7c0,1.7-0.7,3.3-1.8,4.4
		c-1.1,1.1-2.7,1.8-4.4,1.8h-27.9c-1.7,0-3.3-0.7-4.4-1.8c-1.1-1.1-1.8-2.7-1.8-4.4v-5.7c0-1.7,0.7-3.3,1.8-4.4
		C112,173.1,113.6,172.4,115.3,172.4z M143.2,174.7h-27.9c-1.1,0-2.1,0.4-2.8,1.2c-0.7,0.7-1.2,1.7-1.2,2.8v5.7
		c0,1.1,0.4,2.1,1.2,2.8c0.7,0.7,1.7,1.2,2.8,1.2h27.9c1.1,0,2.1-0.4,2.8-1.2c0.7-0.7,1.2-1.7,1.2-2.8v-5.7c0-1.1-0.4-2.1-1.2-2.8
		C145.3,175.2,144.3,174.7,143.2,174.7z"/>
	<g>
		<path style="&st21;" d="M138.2,189.5v2.7c0,1.6-0.6,3-1.7,4.1c-1,1-2.5,1.7-4.1,1.7h-27.1c-1.6,0-3-0.6-4.1-1.7
			c-1-1-1.7-2.5-1.7-4.1v-41.8c0-1.6,0.6-3,1.7-4.1c1-1,2.5-1.7,4.1-1.7h27.1c1.6,0,3,0.6,4.1,1.7c1,1,1.7,2.5,1.7,4.1v23.1h-2.3
			v-23.1c0-1-0.4-1.8-1-2.5c-0.6-0.6-1.5-1-2.5-1h-27.1c-1,0-1.8,0.4-2.5,1c-0.6,0.6-1,1.5-1,2.5v41.8c0,1,0.4,1.8,1,2.5
			c0.6,0.6,1.5,1,2.5,1h27.1c1,0,1.8-0.4,2.5-1c0.6-0.6,1-1.5,1-2.5v-2.7L138.2,189.5L138.2,189.5z"/>
		<path style="&st21;" d="M138.2,189.5v2.7c0,1.6-0.6,3-1.7,4.1c-1,1-2.5,1.7-4.1,1.7h-27.1c-1.6,0-3-0.6-4.1-1.7
			c-1-1-1.7-2.5-1.7-4.1v-41.8c0-1.6,0.6-3,1.7-4.1c1-1,2.5-1.7,4.1-1.7h27.1c1.6,0,3,0.6,4.1,1.7c1,1,1.7,2.5,1.7,4.1v23.1h-2.3
			v-23.1c0-1-0.4-1.8-1-2.5c-0.6-0.6-1.5-1-2.5-1h-27.1c-1,0-1.8,0.4-2.5,1c-0.6,0.6-1,1.5-1,2.5v41.8c0,1,0.4,1.8,1,2.5
			c0.6,0.6,1.5,1,2.5,1h27.1c1,0,1.8-0.4,2.5-1c0.6-0.6,1-1.5,1-2.5v-2.7L138.2,189.5L138.2,189.5z"/>
		<path style="&st21;" d="M108.2,151.9c-0.6,0-1.1,0.5-1.1,1.1c0,0.6,0.5,1.1,1.1,1.1h21.3c0.6,0,1.1-0.5,1.1-1.1
			c0-0.6-0.5-1.1-1.1-1.1H108.2z"/>
		<path style="&st21;" d="M133.1,197.4c-3.5,5.9-7.6,4.2-12.9,2.1c-1.3-0.5-2.6-1-3.9-1.5l0.7-2.2c1.5,0.5,2.8,1,4.1,1.5
			c4.2,1.7,7.5,3,10-1.1L133.1,197.4L133.1,197.4z M100.8,195l-0.3-0.1c-1.6-0.3-2.9-1.2-3.7-2.4c-0.8-1.2-1.2-2.8-0.9-4.3l3.6-18.7
			l2.3,0.4l-3.6,18.7c-0.2,0.9,0,1.9,0.5,2.6c0.5,0.7,1.3,1.3,2.2,1.5l0.3,0.1L100.8,195z M104.7,145.2c3.8-5.9,7.5-4.3,12.7-2.1
			c1.2,0.5,2.6,1.1,4,1.6l-0.7,2.2c-1.5-0.5-2.9-1.1-4.2-1.7c-4.2-1.8-7.2-3.1-9.9,1.2L104.7,145.2L104.7,145.2z M137.2,147.7
			c1.6,0.3,2.9,1.2,3.7,2.4c0.8,1.2,1.2,2.8,0.9,4.3l-3.6,18.8l-2.3-0.4l3.6-18.8c0.2-0.9,0-1.9-0.5-2.6c-0.5-0.7-1.3-1.3-2.2-1.5
			L137.2,147.7L137.2,147.7z"/>
		<path style="&st21;" d="M108.2,158.5c-0.6,0-1.1,0.5-1.1,1.1c0,0.6,0.5,1.1,1.1,1.1h21.3c0.6,0,1.1-0.5,1.1-1.1
			c0-0.6-0.5-1.1-1.1-1.1H108.2z"/>
		<path style="&st21;" d="M108.2,165c-0.6,0-1.1,0.5-1.1,1.1c0,0.6,0.5,1.1,1.1,1.1h21.3c0.6,0,1.1-0.5,1.1-1.1
			c0-0.6-0.5-1.1-1.1-1.1H108.2z"/>
	</g>
</g>
<g>
	<g>
		<g>
			<linearGradient id="SVGID_7_" gradientUnits="userSpaceOnUse" x1="61.0259" y1="29.0929" x2="105.0016" y2="29.0929">
				<stop  offset="0" style="stop-color:#006594"/>
				<stop  offset="0.9352" style="stop-color:#00B393"/>
			</linearGradient>
			<path style="&st22;" d="M104.7,28.5l-1.7-1.3c-1.4-1.1-2.4-2.5-2.9-4.1C97.4,14.7,89.8,9.1,81,9.1c-0.5,0-1.1,0-1.6,0.1
				c-9.8,0.8-17.6,8.7-18.3,18.5c-0.4,5.6,1.5,11,5.3,15.1c3.8,4,9.1,6.4,14.6,6.4c8.7,0,16.4-5.6,19.1-13.9c0.5-1.6,1.5-3,2.9-4.1
				l1.7-1.3c0.3-0.2,0.3-0.5,0.3-0.6C105,29,105,28.7,104.7,28.5z M68.4,41.7c-6.9-6.9-6.9-18.2,0-25.2c6.9-6.9,18.2-6.9,25.2,0
				c6.9,6.9,6.9,18.2,0,25.2C86.7,48.6,75.4,48.6,68.4,41.7z"/>
		</g>
	</g>
	<g>
		<g>
			<path d="M72.1,24.1c0.9-1.1,2.1-1.6,3.8-1.6c1.7,0,3,0.5,3.8,1.6c0.9,1.1,1.3,2.8,1.3,5.3c0,2.4-0.4,4.2-1.3,5.2
				c-0.9,1-2.1,1.6-3.8,1.6c-1.7,0-3-0.5-3.8-1.6c-0.9-1-1.3-2.8-1.3-5.2C70.8,26.9,71.2,25.2,72.1,24.1z M78.2,29.3
				c0-1.6-0.2-2.8-0.5-3.5c-0.3-0.7-0.9-1-1.8-1c-0.8,0-1.4,0.3-1.8,1c-0.4,0.7-0.5,1.8-0.5,3.5s0.2,2.8,0.5,3.4
				c0.4,0.7,0.9,1,1.8,1c0.8,0,1.4-0.3,1.7-1C78,32.1,78.2,30.9,78.2,29.3z"/>
			<path d="M89.9,22.7v13.2h-2.8V25.8l-2.9,1.8L83,25.6l4.4-2.9H89.9z"/>
		</g>
	</g>
</g>
<g>
	<g>
		<linearGradient id="SVGID_8_" gradientUnits="userSpaceOnUse" x1="245.121" y1="29.0929" x2="289.0967" y2="29.0929">
			<stop  offset="0" style="stop-color:#741792"/>
			<stop  offset="0.9352" style="stop-color:#6F92DB"/>
		</linearGradient>
		<path style="&st23;" d="M288.8,28.5l-1.7-1.3c-1.4-1.1-2.4-2.5-2.9-4.1c-2.7-8.3-10.3-13.9-19.1-13.9c-0.5,0-1.1,0-1.6,0.1
			c-9.8,0.8-17.6,8.7-18.3,18.5c-0.4,5.6,1.5,11,5.3,15.1c3.8,4,9.1,6.4,14.6,6.4c8.7,0,16.4-5.6,19.1-13.9c0.5-1.6,1.5-3,2.9-4.1
			l1.7-1.3c0.3-0.2,0.3-0.5,0.3-0.6C289.1,29,289.1,28.7,288.8,28.5z M252.5,41.7c-6.9-6.9-6.9-18.2,0-25.2c6.9-6.9,18.2-6.9,25.2,0
			c6.9,6.9,6.9,18.2,0,25.2C270.8,48.6,259.5,48.6,252.5,41.7z"/>
	</g>
	<g>
		<g>
			<path d="M256.2,23.6c0.9-1.1,2.1-1.6,3.8-1.6c1.7,0,3,0.5,3.8,1.6c0.9,1.1,1.3,2.8,1.3,5.3c0,2.4-0.4,4.2-1.3,5.2
				c-0.9,1-2.1,1.6-3.8,1.6c-1.7,0-3-0.5-3.8-1.6c-0.9-1-1.3-2.8-1.3-5.2C254.9,26.4,255.3,24.7,256.2,23.6z M262.3,28.8
				c0-1.6-0.2-2.8-0.5-3.5c-0.3-0.7-0.9-1-1.8-1c-0.8,0-1.4,0.3-1.8,1c-0.4,0.7-0.5,1.8-0.5,3.5s0.2,2.8,0.5,3.4
				c0.4,0.7,0.9,1,1.8,1c0.8,0,1.4-0.3,1.7-1C262.1,31.6,262.3,30.4,262.3,28.8z"/>
			<path d="M275.5,35.4h-8.6V33l2.8-2.9c1-1,1.7-1.8,2.1-2.4c0.4-0.5,0.6-1.1,0.6-1.8s-0.2-1.1-0.5-1.3c-0.3-0.3-0.8-0.4-1.4-0.4
				c-0.9,0-1.9,0.1-2.9,0.2l-0.5,0.1l-0.1-2.1c1.3-0.4,2.7-0.6,4.1-0.6c2.8,0,4.2,1.3,4.2,3.8c0,1-0.2,1.8-0.6,2.6
				c-0.4,0.7-1.2,1.6-2.3,2.6L270,33h5.5V35.4z"/>
		</g>
	</g>
</g>
<g>
	<g>
		<linearGradient id="SVGID_9_" gradientUnits="userSpaceOnUse" x1="526.4888" y1="29.0929" x2="570.4645" y2="29.0929">
			<stop  offset="0" style="stop-color:#E9A931"/>
			<stop  offset="0.9352" style="stop-color:#E876BE"/>
		</linearGradient>
		<path style="&st24;" d="M570.2,28.5l-1.7-1.3c-1.4-1.1-2.4-2.5-2.9-4.1c-2.7-8.3-10.3-13.9-19.1-13.9c-0.5,0-1.1,0-1.6,0.1
			c-9.8,0.8-17.6,8.7-18.3,18.5c-0.4,5.6,1.5,11,5.3,15.1c3.8,4,9.1,6.4,14.6,6.4c8.7,0,16.4-5.6,19.1-13.9c0.5-1.6,1.5-3,2.9-4.1
			l1.7-1.3c0.3-0.2,0.3-0.5,0.3-0.6C570.5,29,570.4,28.7,570.2,28.5z M533.9,41.7c-6.9-6.9-6.9-18.2,0-25.2c6.9-6.9,18.2-6.9,25.2,0
			c6.9,6.9,6.9,18.2,0,25.2C552.1,48.6,540.9,48.6,533.9,41.7z"/>
	</g>
	<g>
		<g>
			<path d="M537.5,24.1c0.9-1.1,2.1-1.6,3.8-1.6c1.7,0,3,0.5,3.8,1.6c0.9,1.1,1.3,2.8,1.3,5.3c0,2.4-0.4,4.2-1.3,5.2
				c-0.9,1-2.1,1.6-3.8,1.6c-1.7,0-3-0.5-3.8-1.6c-0.9-1-1.3-2.8-1.3-5.2C536.3,26.9,536.7,25.2,537.5,24.1z M543.7,29.3
				c0-1.6-0.2-2.8-0.5-3.5c-0.3-0.7-0.9-1-1.8-1s-1.4,0.3-1.8,1c-0.4,0.7-0.5,1.8-0.5,3.5s0.2,2.8,0.5,3.4c0.4,0.7,0.9,1,1.8,1
				s1.4-0.3,1.7-1C543.5,32.1,543.7,30.9,543.7,29.3z"/>
			<path d="M548.2,23.2c1.2-0.5,2.6-0.7,4.1-0.7s2.6,0.3,3.3,0.9c0.7,0.6,1,1.5,1,2.8c0,1.3-0.5,2.3-1.5,2.9
				c0.6,0.3,1.1,0.7,1.4,1.1c0.3,0.4,0.4,1,0.4,1.8c0,1.4-0.4,2.5-1.1,3.2c-0.7,0.7-1.9,1-3.4,1c-1.2,0-2.4-0.2-3.7-0.5l-0.6-0.2
				l0.1-2.1c1.5,0.3,2.7,0.4,3.8,0.4c1.4,0,2.1-0.6,2.1-1.8c0-0.5-0.2-0.9-0.5-1.2c-0.4-0.3-0.8-0.4-1.4-0.4h-2.7v-2.3h2.7
				c0.4,0,0.8-0.2,1.2-0.6c0.3-0.4,0.5-0.8,0.5-1.2c0-0.9-0.7-1.4-2-1.4c-0.9,0-1.9,0.1-2.9,0.3l-0.5,0.1L548.2,23.2z"/>
		</g>
	</g>
</g>
<g>
	<g>
		<linearGradient id="SVGID_10_" gradientUnits="userSpaceOnUse" x1="767.3586" y1="29.0929" x2="811.3343" y2="29.0929">
			<stop  offset="0" style="stop-color:#A6DE49"/>
			<stop  offset="0.9352" style="stop-color:#00C9B4"/>
		</linearGradient>
		<path style="&st25;" d="M811,28.5l-1.7-1.3c-1.4-1.1-2.4-2.5-2.9-4.1c-2.7-8.3-10.3-13.9-19.1-13.9c-0.5,0-1.1,0-1.6,0.1
			c-9.8,0.8-17.6,8.7-18.3,18.5c-0.4,5.6,1.5,11,5.3,15.1c3.8,4,9.1,6.4,14.6,6.4c8.7,0,16.4-5.6,19.1-13.9c0.5-1.6,1.5-3,2.9-4.1
			l1.7-1.3c0.3-0.2,0.3-0.5,0.3-0.6C811.3,29,811.3,28.7,811,28.5z M774.8,41.7c-6.9-6.9-6.9-18.2,0-25.2c6.9-6.9,18.2-6.9,25.2,0
			c6.9,6.9,6.9,18.2,0,25.2C793,48.6,781.7,48.6,774.8,41.7z"/>
	</g>
	<g>
		<g>
			<path d="M778.4,24.1c0.9-1.1,2.1-1.6,3.8-1.6c1.7,0,3,0.5,3.8,1.6c0.9,1.1,1.3,2.8,1.3,5.3c0,2.4-0.4,4.2-1.3,5.2
				c-0.9,1-2.1,1.6-3.8,1.6c-1.7,0-3-0.5-3.8-1.6c-0.9-1-1.3-2.8-1.3-5.2C777.1,26.9,777.6,25.2,778.4,24.1z M784.5,29.3
				c0-1.6-0.2-2.8-0.5-3.5c-0.3-0.7-0.9-1-1.8-1s-1.4,0.3-1.8,1c-0.4,0.7-0.5,1.8-0.5,3.5s0.2,2.8,0.5,3.4c0.4,0.7,0.9,1,1.8,1
				s1.4-0.3,1.7-1C784.4,32.1,784.5,30.9,784.5,29.3z"/>
			<path d="M794.2,35.9v-2.2h-5.6v-2.1l3.3-8.9h3l-3.5,8.6h2.8v-3.7h2.8v3.7h1.3v2.4H797v2.2H794.2z"/>
		</g>
	</g>
</g>
</svg>
